<?xml version="1.0" standalone="no"?>
<!DOCTYPE svg PUBLIC "-//W3C//DTD SVG 20010904//EN"
 "http://www.w3.org/TR/2001/REC-SVG-20010904/DTD/svg10.dtd">
<svg version="1.0" xmlns="http://www.w3.org/2000/svg"
 width="80.000000pt" height="80.000000pt" viewBox="0 0 80.000000 80.000000"
 preserveAspectRatio="xMidYMid meet">

<g transform="translate(0.000000,80.000000) scale(0.100000,-0.100000)"
fill="#000000" stroke="none">
<path d="M140 548 c-50 -25 -90 -89 -90 -141 0 -79 71 -147 153 -147 59 0 93
17 141 70 28 32 35 45 26 54 -8 8 -20 1 -45 -29 -26 -30 -34 -35 -35 -22 0 10
-13 32 -29 47 l-29 29 29 46 c16 25 33 45 38 45 6 0 46 -45 91 -100 91 -112
132 -140 207 -140 59 0 113 33 137 83 59 126 -68 263 -198 213 -44 -17 -116
-76 -116 -95 0 -18 22 -13 46 10 l23 21 41 -39 42 -39 -17 -57 c-15 -51 -18
-56 -35 -47 -10 6 -40 35 -67 66 -105 124 -140 158 -178 175 -53 24 -82 24
-135 -3z m113 -24 c13 -4 10 -14 -15 -49 l-31 -43 -39 36 c-36 33 -38 37 -22
49 18 13 81 17 107 7z m396 -7 c8 -10 3 -21 -24 -47 l-34 -33 -41 37 c-40 36
-40 37 -18 46 35 13 104 12 117 -3z m61 -77 c13 -47 -4 -98 -41 -124 -24 -16
-24 -16 -43 40 l-18 56 37 38 c21 22 42 37 46 34 5 -3 13 -22 19 -44z m-541
-14 c32 -33 33 -38 27 -82 -3 -26 -8 -49 -10 -51 -8 -9 -66 28 -82 52 -17 25
-21 78 -9 114 8 26 25 18 74 -33z m91 -106 c0 -10 -7 -20 -15 -24 -12 -4 -15
3 -15 31 0 30 2 34 15 23 8 -7 15 -20 15 -30z m340 28 c0 -7 3 -23 6 -35 5
-19 2 -23 -16 -23 -18 0 -21 4 -16 23 3 12 6 28 6 35 0 6 5 12 10 12 6 0 10
-6 10 -12z"/>
<path d="M177 496 c-7 -19 18 -40 39 -32 8 3 14 14 12 23 -4 22 -43 29 -51 9z"/>
<path d="M566 501 c-9 -14 4 -41 19 -41 17 0 38 27 30 40 -8 12 -42 13 -49 1z"/>
</g>
</svg>
